<?xml version="1.0" encoding="utf-8"?>
<!-- Generator: Adobe Illustrator 24.0.1, SVG Export Plug-In . SVG Version: 6.00 Build 0)  -->
<svg version="1.1" id="Layer_2" xmlns="http://www.w3.org/2000/svg" xmlns:xlink="http://www.w3.org/1999/xlink" x="0px" y="0px"
	 viewBox="0 0 300 300" style="enable-background:new 0 0 300 300;" xml:space="preserve">
<style type="text/css">
	.st0{fill:#4F535A;}
	.st1{fill:#FFC709;}
</style>
<polygon class="st0" points="263.6,299.3 270.1,274 270.1,263 275.3,240.3 275.3,209.9 282.4,196.3 293.4,162.4 295.9,145.1 
	297.3,97.7 300,60.8 290.2,56.9 281.1,51.7 262.3,56.9 257.8,67.3 257.8,74.4 231.9,112.5 181.9,102.9 159.2,101 136.6,96.4 
	95.7,99.7 91.2,72.5 91.2,48.5 91.2,34.2 84.7,34.2 81.5,28.4 75,28.4 55.5,32.9 55.5,48.5 43.9,82.8 40.6,116.5 22.5,130.8 
	10.8,155.4 6.3,170.3 0,172.3 0,300 "/>
<polygon class="st1" points="185.5,176.7 174.5,186.5 164.7,196.7 163.9,202.8 170,210.4 183.6,208.5 216.6,190.3 221.9,189.2 
	229.5,182.7 229.5,176.7 235.5,166 235.5,157.7 226.8,154.7 222.6,152.4 205.6,155.8 206,168.7 201.8,189.9 198.4,196.7 
	192.7,195.6 "/>
<polygon class="st1" points="112.4,176.3 121.9,185.8 120,193.3 117.1,200.5 106.3,204.7 90.4,199.8 66.9,181.4 57.4,160 
	60.1,147.9 71.1,144.1 87,142.2 91.9,145.6 85.5,158.5 81.3,181.4 85.1,191.8 89.6,196.4 93.8,195.6 "/>
<polygon class="st1" points="112,218.7 134.4,216.1 139.7,218.7 152.2,216.1 157.5,220.6 162.4,220.6 166.2,234.6 172.6,240.3 
	181,235.4 186.3,228.2 199.7,228.2 205.2,232.4 211.7,233.9 211.7,244.1 209.4,251.7 205.6,256.2 202.6,266.8 196.1,273.3 
	171.5,271.4 173.4,261.2 168.1,255.5 157.1,256.6 150,261.2 143.1,256.6 135.5,259.6 126.8,254.7 115.8,259.6 108.6,260.4 
	108.6,253.2 102.5,248.7 98.6,252.1 89.6,260.4 79.8,253.2 79.8,249 71.8,251.3 65,238.4 68.8,233.9 78.7,228.2 87.4,230.1 
	98.6,227.1 100.3,232.7 106.3,237.3 110.9,226.7 "/>
</svg>
